<svg width="457" height="74" viewBox="0 0 457 74" fill="none" xmlns="http://www.w3.org/2000/svg">
<path d="M34.3226 17.5102V16.5102H33.3226V17.5102H34.3226ZM34.3226 72.7102V73.7102H35.3226V72.7102H34.3226ZM19.9226 72.7102H18.9226V73.7102H19.9226V72.7102ZM19.9226 17.5102H20.9226V16.5102H19.9226V17.5102ZM0.626632 17.5102H-0.373368V18.5102H0.626632V17.5102ZM0.626632 5.7022V4.7022H-0.373368V5.7022H0.626632ZM53.6186 5.7022H54.6186V4.7022H53.6186V5.7022ZM53.6186 17.5102V18.5102H54.6186V17.5102H53.6186ZM33.3226 17.5102V72.7102H35.3226V17.5102H33.3226ZM34.3226 71.7102H19.9226V73.7102H34.3226V71.7102ZM20.9226 72.7102V17.5102H18.9226V72.7102H20.9226ZM19.9226 16.5102H0.626632V18.5102H19.9226V16.5102ZM1.62663 17.5102V5.7022H-0.373368V17.5102H1.62663ZM0.626632 6.7022H53.6186V4.7022H0.626632V6.7022ZM52.6186 5.7022V17.5102H54.6186V5.7022H52.6186ZM53.6186 16.5102H34.3226V18.5102H53.6186V16.5102ZM67.1171 66.9502L67.8492 66.269L67.1171 66.9502ZM62.3171 37.2862L61.3741 36.9534L61.3704 36.9643L62.3171 37.2862ZM67.1171 29.0302L66.38 28.3545L66.3791 28.3554L67.1171 29.0302ZM74.7011 23.8462L75.0656 24.7775L75.0759 24.7733L74.7011 23.8462ZM94.7651 23.8462L94.3834 24.7705L94.392 24.774L94.4007 24.7774L94.7651 23.8462ZM102.253 28.8382L101.525 29.5236L101.525 29.5236L102.253 28.8382ZM106.957 36.8062L106.012 37.134L106.016 37.1457L106.021 37.1573L106.957 36.8062ZM108.685 51.3982V52.3982H109.685V51.3982H108.685ZM74.7971 51.3982V50.3982H73.7971V51.3982H74.7971ZM77.7731 60.0382L77.066 60.7453L77.0718 60.7511L77.0777 60.7568L77.7731 60.0382ZM94.0931 61.2862L94.5511 62.1752L94.5616 62.1698L94.572 62.1641L94.0931 61.2862ZM99.5651 56.7742L100.301 56.0973L99.5255 55.2537L98.7947 56.1366L99.5651 56.7742ZM107.245 65.1262L108.022 65.756L108.566 65.0851L107.981 64.4493L107.245 65.1262ZM99.1811 71.2702L99.6283 72.1646L99.6283 72.1646L99.1811 71.2702ZM77.4851 35.0782L76.7661 34.3832L76.7657 34.3836L77.4851 35.0782ZM74.7971 43.4302H73.7971V44.4302H74.7971V43.4302ZM94.7651 43.4302V44.4302H95.7651V43.4302H94.7651ZM92.0771 34.9822L91.3452 35.6636L91.3514 35.6703L91.3577 35.6768L92.0771 34.9822ZM86.0291 72.8622C77.8932 72.8622 71.8925 70.614 67.8492 66.269L66.3851 67.6314C70.9178 72.5024 77.5251 74.8622 86.0291 74.8622V72.8622ZM67.8492 66.269C63.7751 61.8908 61.6851 55.8861 61.6851 48.1342H59.6851C59.6851 56.2543 61.8832 62.7936 66.3851 67.6314L67.8492 66.269ZM61.6851 48.1342C61.6851 44.1912 62.2172 40.6867 63.2639 37.6081L61.3704 36.9643C60.2411 40.2858 59.6851 44.0132 59.6851 48.1342H61.6851ZM63.2601 37.619C64.3737 34.4639 65.9096 31.8329 67.8552 29.705L66.3791 28.3554C64.2287 30.7075 62.5646 33.5805 61.3741 36.9534L63.2601 37.619ZM67.8543 29.7059C69.8619 27.5158 72.262 25.8745 75.0655 24.7774L74.3367 22.915C71.2523 24.1219 68.5963 25.9366 66.38 28.3545L67.8543 29.7059ZM75.0759 24.7733C77.9489 23.6119 81.1792 23.0222 84.7811 23.0222V21.0222C80.959 21.0222 77.4693 21.6485 74.3263 22.9191L75.0759 24.7733ZM84.7811 23.0222C88.3835 23.0222 91.5787 23.612 94.3834 24.7705L95.1469 22.9219C92.0635 21.6484 88.6027 21.0222 84.7811 21.0222V23.0222ZM94.4007 24.7774C97.2149 25.8787 99.5843 27.4617 101.525 29.5236L102.981 28.1528C100.826 25.8627 98.2033 24.1178 95.1295 22.915L94.4007 24.7774ZM101.525 29.5236C103.466 31.5861 104.965 34.1163 106.012 37.134L107.902 36.4784C106.773 33.2241 105.136 30.4423 102.981 28.1528L101.525 29.5236ZM106.021 37.1573C107.124 40.0997 107.685 43.4341 107.685 47.1742H109.685C109.685 43.2343 109.094 39.6567 107.893 36.4551L106.021 37.1573ZM107.685 47.1742V51.3982H109.685V47.1742H107.685ZM108.685 50.3982H74.7971V52.3982H108.685V50.3982ZM73.7971 51.3982V52.2622H75.7971V51.3982H73.7971ZM73.7971 52.2622C73.7971 55.6869 74.8677 58.547 77.066 60.7453L78.4802 59.3311C76.7106 57.5615 75.7971 55.2375 75.7971 52.2622H73.7971ZM77.0777 60.7568C79.3109 62.9179 82.5123 63.9182 86.5091 63.9182V61.9182C82.826 61.9182 80.2034 60.9985 78.4686 59.3196L77.0777 60.7568ZM86.5091 63.9182C89.575 63.9182 92.2676 63.3515 94.5511 62.1752L93.6352 60.3972C91.6947 61.3969 89.3312 61.9182 86.5091 61.9182V63.9182ZM94.572 62.1641C96.7957 60.9512 98.7186 59.3655 100.336 57.4118L98.7947 56.1366C97.3396 57.8949 95.6146 59.3173 93.6143 60.4083L94.572 62.1641ZM98.829 57.4511L106.509 65.8031L107.981 64.4493L100.301 56.0973L98.829 57.4511ZM106.468 64.4964C104.659 66.7283 102.095 68.695 98.7339 70.3758L99.6283 72.1646C103.179 70.3894 105.992 68.2601 108.022 65.756L106.468 64.4964ZM98.7339 70.3758C95.4588 72.0133 91.2409 72.8622 86.0291 72.8622V74.8622C91.4414 74.8622 95.9915 73.9831 99.6283 72.1646L98.7339 70.3758ZM84.8771 31.1982C81.5785 31.1982 78.8394 32.2385 76.7661 34.3832L78.2041 35.7732C79.8429 34.0779 82.0318 33.1982 84.8771 33.1982V31.1982ZM76.7657 34.3836C74.7528 36.4684 73.7971 39.2687 73.7971 42.6622H75.7971C75.7971 39.6557 76.6335 37.4 78.2045 35.7728L76.7657 34.3836ZM73.7971 42.6622V43.4302H75.7971V42.6622H73.7971ZM74.7971 44.4302H94.7651V42.4302H74.7971V44.4302ZM95.7651 43.4302V42.6622H93.7651V43.4302H95.7651ZM95.7651 42.6622C95.7651 39.211 94.813 36.376 92.7965 34.2876L91.3577 35.6768C92.9253 37.3004 93.7651 39.5854 93.7651 42.6622H95.7651ZM92.809 34.3008C90.8526 32.1995 88.1634 31.1982 84.8771 31.1982V33.1982C87.7349 33.1982 89.8456 34.0529 91.3452 35.6636L92.809 34.3008ZM133.704 72.1342L133.336 73.064L133.347 73.0686L133.359 73.0729L133.704 72.1342ZM125.832 66.9502L125.104 67.6362L125.109 67.6416L125.114 67.647L125.832 66.9502ZM120.936 58.7902L121.877 58.4515L121.877 58.4515L120.936 58.7902ZM125.832 28.9342L125.114 28.2374L125.109 28.2428L125.104 28.2482L125.832 28.9342ZM133.704 23.8462L134.055 24.7826L134.065 24.7786L133.704 23.8462ZM157.224 25.3822L156.658 26.2067L156.667 26.213L156.676 26.2192L157.224 25.3822ZM164.808 34.1182L165.285 34.9967L166.116 34.5448L165.711 33.6901L164.808 34.1182ZM153.864 40.0702L152.957 40.4931L153.407 41.4568L154.341 40.9487L153.864 40.0702ZM150.312 35.2702L149.639 36.0101L149.647 36.0176L149.655 36.0248L150.312 35.2702ZM136.584 36.2302L135.853 35.5479L135.852 35.5488L136.584 36.2302ZM136.584 59.7502L135.84 60.4192L135.852 60.4322L135.864 60.4448L136.584 59.7502ZM150.792 60.6142L150.167 59.8333L150.159 59.8396L150.151 59.846L150.792 60.6142ZM154.824 55.6222L155.32 54.754L154.424 54.2423L153.941 55.153L154.824 55.6222ZM165.576 61.7662L166.473 62.2071L166.887 61.364L166.072 60.898L165.576 61.7662ZM157.704 70.5982L158.244 71.4399L158.248 71.4374L157.704 70.5982ZM144.264 72.8622C140.458 72.8622 137.057 72.3008 134.048 71.1955L133.359 73.0729C136.622 74.2716 140.261 74.8622 144.264 74.8622V72.8622ZM134.072 71.2044C131.123 70.0374 128.621 68.3861 126.549 66.2534L125.114 67.647C127.395 69.9943 130.14 71.799 133.336 73.064L134.072 71.2044ZM126.559 66.2642C124.551 64.1341 122.987 61.5359 121.877 58.4515L119.995 59.1289C121.188 62.4445 122.888 65.2863 125.104 67.6362L126.559 66.2642ZM121.877 58.4515C120.77 55.3782 120.208 51.8796 120.208 47.9422H118.208C118.208 52.0688 118.797 55.8022 119.995 59.1289L121.877 58.4515ZM120.208 47.9422C120.208 44.0048 120.77 40.5062 121.877 37.4329L119.995 36.7555C118.797 40.0822 118.208 43.8156 118.208 47.9422H120.208ZM121.877 37.4329C122.987 34.3485 124.551 31.7503 126.559 29.6202L125.104 28.2482C122.888 30.5981 121.188 33.4399 119.995 36.7555L121.877 37.4329ZM126.549 29.631C128.617 27.5022 131.114 25.8854 134.055 24.7825L133.353 22.9099C130.149 24.111 127.398 25.8862 125.114 28.2374L126.549 29.631ZM134.065 24.7786C137.071 23.6131 140.434 23.0222 144.168 23.0222V21.0222C140.221 21.0222 136.609 21.6473 133.342 22.9138L134.065 24.7786ZM144.168 23.0222C149.479 23.0222 153.612 24.1166 156.658 26.2067L157.789 24.5577C154.307 22.1679 149.736 21.0222 144.168 21.0222V23.0222ZM156.676 26.2192C159.848 28.2927 162.254 31.0622 163.904 34.5463L165.711 33.6901C163.906 29.8782 161.256 26.8237 157.771 24.5452L156.676 26.2192ZM164.33 33.2397L153.386 39.1917L154.341 40.9487L165.285 34.9967L164.33 33.2397ZM154.77 39.6473C153.82 37.6115 152.554 35.8951 150.968 34.5156L149.655 36.0248C151.013 37.2053 152.115 38.6889 152.957 40.4931L154.77 39.6473ZM150.984 34.5303C149.328 33.0249 147.002 32.3502 144.168 32.3502V34.3502C146.709 34.3502 148.479 34.9555 149.639 36.0101L150.984 34.5303ZM144.168 32.3502C140.698 32.3502 137.878 33.378 135.853 35.5479L137.315 36.9125C138.873 35.2424 141.109 34.3502 144.168 34.3502V32.3502ZM135.852 35.5488C133.906 37.6383 132.992 40.4685 132.992 43.9102H134.992C134.992 40.824 135.805 38.5341 137.316 36.9116L135.852 35.5488ZM132.992 43.9102V51.9742H134.992V43.9102H132.992ZM132.992 51.9742C132.992 55.4178 133.907 58.2709 135.84 60.4192L137.327 59.0812C135.804 57.3895 134.992 55.0586 134.992 51.9742H132.992ZM135.864 60.4448C137.899 62.5519 140.785 63.5342 144.36 63.5342V61.5342C141.15 61.5342 138.853 60.6605 137.303 59.0556L135.864 60.4448ZM144.36 63.5342C147.258 63.5342 149.659 62.86 151.432 61.3824L150.151 59.846C148.853 60.9284 146.965 61.5342 144.36 61.5342V63.5342ZM151.416 61.3951C153.136 60.0193 154.563 58.244 155.707 56.0914L153.941 55.153C152.908 57.0965 151.647 58.6491 150.167 59.8333L151.416 61.3951ZM154.327 56.4904L165.079 62.6344L166.072 60.898L155.32 54.754L154.327 56.4904ZM164.678 61.3253C162.967 64.8088 160.466 67.616 157.16 69.7591L158.248 71.4374C161.853 69.1004 164.6 66.0196 166.473 62.2071L164.678 61.3253ZM157.164 69.7565C153.983 71.7968 149.711 72.8622 144.264 72.8622V74.8622C149.953 74.8622 154.64 73.7517 158.244 71.4399L157.164 69.7565ZM177.25 1.6702V0.670204H176.25V1.6702H177.25ZM191.458 1.6702H192.458V0.670204H191.458V1.6702ZM191.458 32.1982H190.458V33.1982H191.458V32.1982ZM192.034 32.1982V33.1982H192.705L192.96 32.5768L192.034 32.1982ZM197.122 25.0942L197.736 25.8836L197.742 25.8791L197.122 25.0942ZM201.25 22.8862L201.566 23.8349L201.578 23.8311L201.589 23.8271L201.25 22.8862ZM213.154 23.2702L212.767 24.1924L212.78 24.1978L212.793 24.2028L213.154 23.2702ZM221.506 32.6782L220.557 32.9944L220.561 33.0062L220.566 33.0178L221.506 32.6782ZM222.754 72.7102V73.7102H223.754V72.7102H222.754ZM208.546 72.7102H207.546V73.7102H208.546V72.7102ZM196.93 33.4462L197.173 34.4163L197.193 34.4114L197.212 34.4056L196.93 33.4462ZM194.146 34.7902L194.715 35.6124L194.736 35.5981L194.756 35.5828L194.146 34.7902ZM192.13 36.9982L191.262 36.5021L191.248 36.5262L191.236 36.551L192.13 36.9982ZM191.458 72.7102V73.7102H192.458V72.7102H191.458ZM177.25 72.7102H176.25V73.7102H177.25V72.7102ZM177.25 2.6702H191.458V0.670204H177.25V2.6702ZM190.458 1.6702V32.1982H192.458V1.6702H190.458ZM191.458 33.1982H192.034V31.1982H191.458V33.1982ZM192.96 32.5768C193.51 31.2321 194.181 29.9827 194.971 28.8269L193.321 27.6975C192.448 28.9737 191.71 30.3483 191.109 31.8196L192.96 32.5768ZM194.971 28.8269C195.746 27.6954 196.667 26.7154 197.736 25.8836L196.508 24.3049C195.274 25.265 194.211 26.397 193.321 27.6975L194.971 28.8269ZM197.742 25.8791C198.863 24.994 200.135 24.3119 201.566 23.8349L200.934 21.9375C199.293 22.4845 197.813 23.2744 196.502 24.3093L197.742 25.8791ZM201.589 23.8271C203.064 23.2961 204.739 23.0222 206.626 23.0222V21.0222C204.546 21.0222 202.637 21.3243 200.911 21.9453L201.589 23.8271ZM206.626 23.0222C208.875 23.0222 210.918 23.4167 212.767 24.1924L213.541 22.348C211.423 21.4597 209.114 21.0222 206.626 21.0222V23.0222ZM212.793 24.2028C214.627 24.9126 216.189 26.0032 217.491 27.4828L218.993 26.1616C217.479 24.4412 215.649 23.1638 213.515 22.3376L212.793 24.2028ZM217.491 27.4828C218.8 28.9694 219.826 30.7997 220.557 32.9944L222.455 32.362C221.65 29.9487 220.501 27.875 218.993 26.1616L217.491 27.4828ZM220.566 33.0178C221.35 35.1913 221.754 37.7285 221.754 40.6462H223.754C223.754 37.5479 223.326 34.7731 222.447 32.3386L220.566 33.0178ZM221.754 40.6462V72.7102H223.754V40.6462H221.754ZM222.754 71.7102H208.546V73.7102H222.754V71.7102ZM209.546 72.7102V42.5662H207.546V72.7102H209.546ZM209.546 42.5662C209.546 39.2436 208.826 36.5649 207.213 34.7098C205.576 32.8282 203.171 31.9662 200.194 31.9662V33.9662C202.785 33.9662 204.557 34.7042 205.704 36.0226C206.874 37.3675 207.546 39.4888 207.546 42.5662H209.546ZM200.194 31.9662C199.007 31.9662 197.824 32.141 196.648 32.4868L197.212 34.4056C198.213 34.1114 199.206 33.9662 200.194 33.9662V31.9662ZM196.688 32.4761C195.531 32.7652 194.478 33.2733 193.536 33.9976L194.756 35.5828C195.478 35.0271 196.281 34.6392 197.173 34.4163L196.688 32.4761ZM193.577 33.968C192.62 34.6307 191.846 35.4791 191.262 36.5021L192.998 37.4943C193.438 36.7253 194.009 36.1017 194.715 35.6124L193.577 33.968ZM191.236 36.551C190.705 37.6124 190.458 38.8277 190.458 40.1662H192.458C192.458 39.0727 192.659 38.176 193.025 37.4454L191.236 36.551ZM190.458 40.1662V72.7102H192.458V40.1662H190.458ZM191.458 71.7102H177.25V73.7102H191.458V71.7102ZM178.25 72.7102V1.6702H176.25V72.7102H178.25ZM264.573 17.5102V16.5102H263.573V17.5102H264.573ZM264.573 72.7102V73.7102H265.573V72.7102H264.573ZM250.173 72.7102H249.173V73.7102H250.173V72.7102ZM250.173 17.5102H251.173V16.5102H250.173V17.5102ZM230.877 17.5102H229.877V18.5102H230.877V17.5102ZM230.877 5.7022V4.7022H229.877V5.7022H230.877ZM283.869 5.7022H284.869V4.7022H283.869V5.7022ZM283.869 17.5102V18.5102H284.869V17.5102H283.869ZM263.573 17.5102V72.7102H265.573V17.5102H263.573ZM264.573 71.7102H250.173V73.7102H264.573V71.7102ZM251.173 72.7102V17.5102H249.173V72.7102H251.173ZM250.173 16.5102H230.877V18.5102H250.173V16.5102ZM231.877 17.5102V5.7022H229.877V17.5102H231.877ZM230.877 6.7022H283.869V4.7022H230.877V6.7022ZM282.869 5.7022V17.5102H284.869V5.7022H282.869ZM283.869 16.5102H264.573V18.5102H283.869V16.5102ZM293.239 61.6702V60.6702H292.239V61.6702H293.239ZM304.663 61.6702V62.6702H305.663V61.6702H304.663ZM304.663 34.2142H305.663V33.2142H304.663V34.2142ZM293.239 34.2142H292.239V35.2142H293.239V34.2142ZM293.239 23.1742V22.1742H292.239V23.1742H293.239ZM318.871 23.1742H319.871V22.1742H318.871V23.1742ZM318.871 37.1902H317.871V38.1902H318.871V37.1902ZM319.543 37.1902V38.1902H320.324L320.513 37.4327L319.543 37.1902ZM321.367 32.0062L320.466 31.5724L320.463 31.5797L320.459 31.5871L321.367 32.0062ZM324.439 27.4942L323.715 26.8045L323.714 26.8055L324.439 27.4942ZM329.047 24.3262L329.441 25.2453L329.441 25.2453L329.047 24.3262ZM340.087 23.1742H341.087V22.1742H340.087V23.1742ZM340.087 36.2302V37.2302H341.087V36.2302H340.087ZM321.559 39.3982L322.312 40.0567L322.317 40.051L322.322 40.0452L321.559 39.3982ZM318.871 61.6702H317.871V62.6702H318.871V61.6702ZM335.191 61.6702H336.191V60.6702H335.191V61.6702ZM335.191 72.7102V73.7102H336.191V72.7102H335.191ZM293.239 72.7102H292.239V73.7102H293.239V72.7102ZM293.239 62.6702H304.663V60.6702H293.239V62.6702ZM305.663 61.6702V34.2142H303.663V61.6702H305.663ZM304.663 33.2142H293.239V35.2142H304.663V33.2142ZM294.239 34.2142V23.1742H292.239V34.2142H294.239ZM293.239 24.1742H318.871V22.1742H293.239V24.1742ZM317.871 23.1742V37.1902H319.871V23.1742H317.871ZM318.871 38.1902H319.543V36.1902H318.871V38.1902ZM320.513 37.4327C320.946 35.7009 321.534 34.032 322.275 32.4253L320.459 31.5871C319.665 33.3084 319.036 35.0955 318.573 36.9477L320.513 37.4327ZM322.268 32.44C323.059 30.7976 324.026 29.3814 325.164 28.183L323.714 26.8055C322.421 28.167 321.339 29.7588 320.466 31.5724L322.268 32.44ZM325.163 28.1839C326.345 26.9428 327.767 25.9627 329.441 25.2453L328.653 23.4071C326.743 24.2257 325.093 25.3576 323.715 26.8045L325.163 28.1839ZM329.441 25.2453C331.082 24.5421 333.054 24.1742 335.383 24.1742V22.1742C332.848 22.1742 330.596 22.5743 328.653 23.4071L329.441 25.2453ZM335.383 24.1742H340.087V22.1742H335.383V24.1742ZM339.087 23.1742V36.2302H341.087V23.1742H339.087ZM340.087 35.2302H329.527V37.2302H340.087V35.2302ZM329.527 35.2302C325.799 35.2302 322.828 36.3572 320.797 38.7512L322.322 40.0452C323.874 38.2152 326.215 37.2302 329.527 37.2302V35.2302ZM320.807 38.7397C318.838 40.9896 317.871 43.7594 317.871 46.9822H319.871C319.871 44.189 320.696 41.9028 322.312 40.0567L320.807 38.7397ZM317.871 46.9822V61.6702H319.871V46.9822H317.871ZM318.871 62.6702H335.191V60.6702H318.871V62.6702ZM334.191 61.6702V72.7102H336.191V61.6702H334.191ZM335.191 71.7102H293.239V73.7102H335.191V71.7102ZM294.239 72.7102V61.6702H292.239V72.7102H294.239ZM368.85 14.9182L368.108 15.5891L368.125 15.6076L368.143 15.6253L368.85 14.9182ZM368.85 2.5342L368.143 1.8271L368.133 1.83616L368.125 1.84545L368.85 2.5342ZM382.194 2.5342L381.469 3.22295L381.477 3.23225L381.487 3.24131L382.194 2.5342ZM382.194 14.9182L381.469 14.2285L381.469 14.2295L382.194 14.9182ZM352.722 61.6702V60.6702H351.722V61.6702H352.722ZM368.466 61.6702V62.6702H369.466V61.6702H368.466ZM368.466 34.2142H369.466V33.2142H368.466V34.2142ZM352.722 34.2142H351.722V35.2142H352.722V34.2142ZM352.722 23.1742V22.1742H351.722V23.1742H352.722ZM382.674 23.1742H383.674V22.1742H382.674V23.1742ZM382.674 61.6702H381.674V62.6702H382.674V61.6702ZM397.266 61.6702H398.266V60.6702H397.266V61.6702ZM397.266 72.7102V73.7102H398.266V72.7102H397.266ZM352.722 72.7102H351.722V73.7102H352.722V72.7102ZM375.57 15.8382C372.447 15.8382 370.549 15.2032 369.557 14.2111L368.143 15.6253C369.71 17.1932 372.292 17.8382 375.57 17.8382V15.8382ZM369.591 14.2473C368.546 13.092 368.026 11.7328 368.026 10.1182H366.026C366.026 12.2156 366.721 14.0564 368.108 15.5891L369.591 14.2473ZM368.026 10.1182V7.3342H366.026V10.1182H368.026ZM368.026 7.3342C368.026 5.64602 368.551 4.30005 369.575 3.22295L368.125 1.84545C366.716 3.32836 366.026 5.18238 366.026 7.3342H368.026ZM369.557 3.24131C370.549 2.24923 372.447 1.6142 375.57 1.6142V-0.385799C372.292 -0.385799 369.71 0.259174 368.143 1.8271L369.557 3.24131ZM375.57 1.6142C378.7 1.6142 380.547 2.25253 381.469 3.22295L382.919 1.84546C381.409 0.255875 378.839 -0.385799 375.57 -0.385799V1.6142ZM381.487 3.24131C382.567 4.32152 383.114 5.66156 383.114 7.3342H385.114C385.114 5.16684 384.381 3.30689 382.901 1.8271L381.487 3.24131ZM383.114 7.3342V10.1182H385.114V7.3342H383.114ZM383.114 10.1182C383.114 11.7174 382.572 13.0705 381.469 14.2285L382.918 15.6079C384.375 14.0779 385.114 12.231 385.114 10.1182H383.114ZM381.469 14.2295C380.547 15.1999 378.7 15.8382 375.57 15.8382V17.8382C378.839 17.8382 381.409 17.1965 382.919 15.6069L381.469 14.2295ZM352.722 62.6702H368.466V60.6702H352.722V62.6702ZM369.466 61.6702V34.2142H367.466V61.6702H369.466ZM368.466 33.2142H352.722V35.2142H368.466V33.2142ZM353.722 34.2142V23.1742H351.722V34.2142H353.722ZM352.722 24.1742H382.674V22.1742H352.722V24.1742ZM381.674 23.1742V61.6702H383.674V23.1742H381.674ZM382.674 62.6702H397.266V60.6702H382.674V62.6702ZM396.266 61.6702V72.7102H398.266V61.6702H396.266ZM397.266 71.7102H352.722V73.7102H397.266V71.7102ZM353.722 72.7102V61.6702H351.722V72.7102H353.722ZM403.468 72.7102L402.663 72.1171L401.489 73.7102H403.468V72.7102ZM421.996 47.5582L422.801 48.1513L423.23 47.5695L422.812 46.98L421.996 47.5582ZM404.716 23.1742V22.1742H402.782L403.9 23.7524L404.716 23.1742ZM420.94 23.1742L421.774 22.6218L421.477 22.1742H420.94V23.1742ZM426.22 31.1422L427.067 30.6111L427.061 30.6004L427.054 30.5898L426.22 31.1422ZM430.252 37.5742L429.405 38.1053L429.699 38.5742H430.252V37.5742ZM431.02 37.5742V38.5742H431.567L431.862 38.1143L431.02 37.5742ZM435.148 31.1422L434.319 30.5829L434.313 30.5924L434.307 30.6021L435.148 31.1422ZM440.524 23.1742V22.1742H439.993L439.695 22.6149L440.524 23.1742ZM455.404 23.1742L456.211 23.7647L457.375 22.1742H455.404V23.1742ZM438.124 46.7902L437.317 46.1997L436.89 46.7834L437.311 47.3717L438.124 46.7902ZM456.652 72.7102V73.7102H458.596L457.466 72.1287L456.652 72.7102ZM440.332 72.7102L439.501 73.2669L439.798 73.7102H440.332V72.7102ZM434.092 63.3982L433.254 63.9445L433.261 63.9549L434.092 63.3982ZM429.772 56.7742L430.61 56.2279L430.314 55.7742H429.772V56.7742ZM429.004 56.7742V55.7742H428.456L428.161 56.2365L429.004 56.7742ZM424.78 63.3982L425.607 63.9607L425.615 63.9484L425.623 63.9359L424.78 63.3982ZM418.444 72.7102V73.7102H418.973L419.271 73.2727L418.444 72.7102ZM404.273 73.3033L422.801 48.1513L421.191 46.9651L402.663 72.1171L404.273 73.3033ZM422.812 46.98L405.532 22.596L403.9 23.7524L421.18 48.1364L422.812 46.98ZM404.716 24.1742H420.94V22.1742H404.716V24.1742ZM420.107 23.7266L425.387 31.6946L427.054 30.5898L421.774 22.6218L420.107 23.7266ZM425.373 31.6733L429.405 38.1053L431.099 37.0431L427.067 30.6111L425.373 31.6733ZM430.252 38.5742H431.02V36.5742H430.252V38.5742ZM431.862 38.1143L435.99 31.6823L434.307 30.6021L430.179 37.0341L431.862 38.1143ZM435.977 31.7015L441.353 23.7335L439.695 22.6149L434.319 30.5829L435.977 31.7015ZM440.524 24.1742H455.404V22.1742H440.524V24.1742ZM454.597 22.5837L437.317 46.1997L438.931 47.3807L456.211 23.7647L454.597 22.5837ZM437.311 47.3717L455.839 73.2917L457.466 72.1287L438.938 46.2087L437.311 47.3717ZM456.652 71.7102H440.332V73.7102H456.652V71.7102ZM441.163 72.1535L434.923 62.8415L433.261 63.9549L439.501 73.2669L441.163 72.1535ZM434.93 62.8519L430.61 56.2279L428.935 57.3205L433.255 63.9445L434.93 62.8519ZM429.772 55.7742H429.004V57.7742H429.772V55.7742ZM428.161 56.2365L423.937 62.8605L425.623 63.9359L429.847 57.3119L428.161 56.2365ZM423.953 62.8357L417.617 72.1477L419.271 73.2727L425.607 63.9607L423.953 62.8357ZM418.444 71.7102H403.468V73.7102H418.444V71.7102Z" fill="white"/>
</svg>
