<svg width="457" height="74" viewBox="0 0 457 74" fill="none" xmlns="http://www.w3.org/2000/svg">
<path d="M34.3226 17.51V72.71H19.9226V17.51H0.626632V5.70196H53.6186V17.51H34.3226ZM86.0291 73.862C77.7091 73.862 71.4051 71.558 67.1171 66.95C62.8291 62.342 60.6851 56.07 60.6851 48.134C60.6851 44.102 61.2291 40.486 62.3171 37.286C63.4691 34.022 65.0691 31.27 67.1171 29.03C69.2291 26.726 71.7571 24.998 74.7011 23.846C77.7091 22.63 81.0691 22.022 84.7811 22.022C88.4931 22.022 91.8211 22.63 94.7651 23.846C97.7091 24.998 100.205 26.662 102.253 28.838C104.301 31.014 105.869 33.67 106.957 36.806C108.109 39.878 108.685 43.334 108.685 47.174V51.398H74.7971V52.262C74.7971 55.462 75.7891 58.054 77.7731 60.038C79.7571 61.958 82.6691 62.918 86.5091 62.918C89.4531 62.918 91.9811 62.374 94.0931 61.286C96.2051 60.134 98.0291 58.63 99.5651 56.774L107.245 65.126C105.325 67.494 102.637 69.542 99.1811 71.27C95.7251 72.998 91.3411 73.862 86.0291 73.862ZM84.8771 32.198C81.8051 32.198 79.3411 33.158 77.4851 35.078C75.6931 36.934 74.7971 39.462 74.7971 42.662V43.43H94.7651V42.662C94.7651 39.398 93.8691 36.838 92.0771 34.982C90.3491 33.126 87.9491 32.198 84.8771 32.198ZM144.264 73.862C140.36 73.862 136.84 73.286 133.704 72.134C130.632 70.918 128.008 69.19 125.832 66.95C123.72 64.71 122.088 61.99 120.936 58.79C119.784 55.59 119.208 51.974 119.208 47.942C119.208 43.91 119.784 40.294 120.936 37.094C122.088 33.894 123.72 31.174 125.832 28.934C128.008 26.694 130.632 24.998 133.704 23.846C136.84 22.63 140.328 22.022 144.168 22.022C149.608 22.022 153.96 23.142 157.224 25.382C160.552 27.558 163.08 30.47 164.808 34.118L153.864 40.07C152.968 38.15 151.784 36.55 150.312 35.27C148.904 33.99 146.856 33.35 144.168 33.35C140.904 33.35 138.376 34.31 136.584 36.23C134.856 38.086 133.992 40.646 133.992 43.91V51.974C133.992 55.238 134.856 57.83 136.584 59.75C138.376 61.606 140.968 62.534 144.36 62.534C147.112 62.534 149.256 61.894 150.792 60.614C152.392 59.334 153.736 57.67 154.824 55.622L165.576 61.766C163.784 65.414 161.16 68.358 157.704 70.598C154.312 72.774 149.832 73.862 144.264 73.862ZM177.25 1.66996H191.458V32.198H192.034C192.61 30.79 193.314 29.478 194.146 28.262C194.978 27.046 195.97 25.99 197.122 25.094C198.338 24.134 199.714 23.398 201.25 22.886C202.85 22.31 204.642 22.022 206.626 22.022C208.994 22.022 211.17 22.438 213.154 23.27C215.138 24.038 216.834 25.222 218.242 26.822C219.65 28.422 220.738 30.374 221.506 32.678C222.338 34.982 222.754 37.638 222.754 40.646V72.71H208.546V42.566C208.546 36.166 205.762 32.966 200.194 32.966C199.106 32.966 198.018 33.126 196.93 33.446C195.906 33.702 194.978 34.15 194.146 34.79C193.314 35.366 192.642 36.102 192.13 36.998C191.682 37.894 191.458 38.95 191.458 40.166V72.71H177.25V1.66996ZM264.573 17.51V72.71H250.173V17.51H230.877V5.70196H283.869V17.51H264.573ZM293.239 61.67H304.663V34.214H293.239V23.174H318.871V37.19H319.543C319.991 35.398 320.599 33.67 321.367 32.006C322.199 30.278 323.223 28.774 324.439 27.494C325.719 26.15 327.255 25.094 329.047 24.326C330.839 23.558 332.951 23.174 335.383 23.174H340.087V36.23H329.527C326.007 36.23 323.351 37.286 321.559 39.398C319.767 41.446 318.871 43.974 318.871 46.982V61.67H335.191V72.71H293.239V61.67ZM375.57 16.838C372.37 16.838 370.13 16.198 368.85 14.918C367.634 13.574 367.026 11.974 367.026 10.118V7.33396C367.026 5.41396 367.634 3.81396 368.85 2.53396C370.13 1.25396 372.37 0.613956 375.57 0.613956C378.77 0.613956 380.978 1.25396 382.194 2.53396C383.474 3.81396 384.114 5.41396 384.114 7.33396V10.118C384.114 11.974 383.474 13.574 382.194 14.918C380.978 16.198 378.77 16.838 375.57 16.838ZM352.722 61.67H368.466V34.214H352.722V23.174H382.674V61.67H397.266V72.71H352.722V61.67ZM403.468 72.71L421.996 47.558L404.716 23.174H420.94L426.22 31.142L430.252 37.574H431.02L435.148 31.142L440.524 23.174H455.404L438.124 46.79L456.652 72.71H440.332L434.092 63.398L429.772 56.774H429.004L424.78 63.398L418.444 72.71H403.468Z" fill="#D9D9D9"/>
<path d="M34.3226 17.51V16.51H33.3226V17.51H34.3226ZM34.3226 72.71V73.71H35.3226V72.71H34.3226ZM19.9226 72.71H18.9226V73.71H19.9226V72.71ZM19.9226 17.51H20.9226V16.51H19.9226V17.51ZM0.626632 17.51H-0.373368V18.51H0.626632V17.51ZM0.626632 5.70196V4.70196H-0.373368V5.70196H0.626632ZM53.6186 5.70196H54.6186V4.70196H53.6186V5.70196ZM53.6186 17.51V18.51H54.6186V17.51H53.6186ZM33.3226 17.51V72.71H35.3226V17.51H33.3226ZM34.3226 71.71H19.9226V73.71H34.3226V71.71ZM20.9226 72.71V17.51H18.9226V72.71H20.9226ZM19.9226 16.51H0.626632V18.51H19.9226V16.51ZM1.62663 17.51V5.70196H-0.373368V17.51H1.62663ZM0.626632 6.70196H53.6186V4.70196H0.626632V6.70196ZM52.6186 5.70196V17.51H54.6186V5.70196H52.6186ZM53.6186 16.51H34.3226V18.51H53.6186V16.51ZM67.1171 66.95L67.8492 66.2687L67.1171 66.95ZM62.3171 37.286L61.3741 36.9531L61.3704 36.9641L62.3171 37.286ZM67.1171 29.03L66.38 28.3542L66.3791 28.3552L67.1171 29.03ZM74.7011 23.846L75.0656 24.7773L75.0759 24.7731L74.7011 23.846ZM94.7651 23.846L94.3834 24.7702L94.392 24.7738L94.4007 24.7772L94.7651 23.846ZM102.253 28.838L101.525 29.5233L101.525 29.5233L102.253 28.838ZM106.957 36.806L106.012 37.1337L106.016 37.1455L106.021 37.1571L106.957 36.806ZM108.685 51.398V52.398H109.685V51.398H108.685ZM74.7971 51.398V50.398H73.7971V51.398H74.7971ZM77.7731 60.038L77.066 60.7451L77.0718 60.7509L77.0777 60.7566L77.7731 60.038ZM94.0931 61.286L94.5511 62.1749L94.5616 62.1695L94.572 62.1639L94.0931 61.286ZM99.5651 56.774L100.301 56.0971L99.5255 55.2534L98.7947 56.1364L99.5651 56.774ZM107.245 65.126L108.022 65.7558L108.566 65.0849L107.981 64.4491L107.245 65.126ZM99.1811 71.27L99.6283 72.1644L99.6283 72.1644L99.1811 71.27ZM77.4851 35.078L76.7661 34.3829L76.7657 34.3834L77.4851 35.078ZM74.7971 43.43H73.7971V44.43H74.7971V43.43ZM94.7651 43.43V44.43H95.7651V43.43H94.7651ZM92.0771 34.982L91.3452 35.6634L91.3514 35.67L91.3577 35.6766L92.0771 34.982ZM86.0291 72.862C77.8932 72.862 71.8925 70.6137 67.8492 66.2687L66.3851 67.6312C70.9178 72.5022 77.5251 74.862 86.0291 74.862V72.862ZM67.8492 66.2687C63.7751 61.8906 61.6851 55.8859 61.6851 48.134H59.6851C59.6851 56.2541 61.8832 62.7933 66.3851 67.6312L67.8492 66.2687ZM61.6851 48.134C61.6851 44.1909 62.2172 40.6864 63.2639 37.6079L61.3704 36.9641C60.2411 40.2855 59.6851 44.013 59.6851 48.134H61.6851ZM63.2601 37.6188C64.3737 34.4637 65.9096 31.8327 67.8552 29.7047L66.3791 28.3552C64.2287 30.7072 62.5646 33.5802 61.3741 36.9531L63.2601 37.6188ZM67.8543 29.7057C69.8619 27.5155 72.262 25.8743 75.0655 24.7772L74.3367 22.9147C71.2523 24.1217 68.5963 25.9364 66.38 28.3542L67.8543 29.7057ZM75.0759 24.7731C77.9489 23.6116 81.1792 23.022 84.7811 23.022V21.022C80.959 21.022 77.4693 21.6483 74.3263 22.9189L75.0759 24.7731ZM84.7811 23.022C88.3835 23.022 91.5787 23.6118 94.3834 24.7702L95.1469 22.9217C92.0635 21.6481 88.6027 21.022 84.7811 21.022V23.022ZM94.4007 24.7772C97.2149 25.8784 99.5843 27.4614 101.525 29.5233L102.981 28.1526C100.826 25.8625 98.2033 24.1175 95.1295 22.9147L94.4007 24.7772ZM101.525 29.5233C103.466 31.5859 104.965 34.116 106.012 37.1337L107.902 36.4782C106.773 33.2239 105.136 30.4421 102.981 28.1526L101.525 29.5233ZM106.021 37.1571C107.124 40.0995 107.685 43.4338 107.685 47.174H109.685C109.685 43.2341 109.094 39.6565 107.893 36.4548L106.021 37.1571ZM107.685 47.174V51.398H109.685V47.174H107.685ZM108.685 50.398H74.7971V52.398H108.685V50.398ZM73.7971 51.398V52.262H75.7971V51.398H73.7971ZM73.7971 52.262C73.7971 55.6867 74.8677 58.5467 77.066 60.7451L78.4802 59.3309C76.7106 57.5612 75.7971 55.2373 75.7971 52.262H73.7971ZM77.0777 60.7566C79.3109 62.9177 82.5123 63.918 86.5091 63.918V61.918C82.826 61.918 80.2034 60.9982 78.4686 59.3194L77.0777 60.7566ZM86.5091 63.918C89.575 63.918 92.2676 63.3513 94.5511 62.1749L93.6352 60.397C91.6947 61.3966 89.3312 61.918 86.5091 61.918V63.918ZM94.572 62.1639C96.7957 60.9509 98.7186 59.3653 100.336 57.4115L98.7947 56.1364C97.3396 57.8946 95.6146 59.317 93.6143 60.4081L94.572 62.1639ZM98.829 57.4508L106.509 65.8028L107.981 64.4491L100.301 56.0971L98.829 57.4508ZM106.468 64.4962C104.659 66.7281 102.095 68.6948 98.7339 70.3755L99.6283 72.1644C103.179 70.3891 105.992 68.2599 108.022 65.7558L106.468 64.4962ZM98.7339 70.3755C95.4588 72.0131 91.2409 72.862 86.0291 72.862V74.862C91.4414 74.862 95.9915 73.9828 99.6283 72.1644L98.7339 70.3755ZM84.8771 31.198C81.5785 31.198 78.8394 32.2382 76.7661 34.3829L78.2041 35.773C79.8429 34.0777 82.0318 33.198 84.8771 33.198V31.198ZM76.7657 34.3834C74.7528 36.4682 73.7971 39.2684 73.7971 42.662H75.7971C75.7971 39.6555 76.6335 37.3997 78.2045 35.7726L76.7657 34.3834ZM73.7971 42.662V43.43H75.7971V42.662H73.7971ZM74.7971 44.43H94.7651V42.43H74.7971V44.43ZM95.7651 43.43V42.662H93.7651V43.43H95.7651ZM95.7651 42.662C95.7651 39.2107 94.813 36.3758 92.7965 34.2874L91.3577 35.6766C92.9253 37.3001 93.7651 39.5852 93.7651 42.662H95.7651ZM92.809 34.3005C90.8526 32.1992 88.1634 31.198 84.8771 31.198V33.198C87.7349 33.198 89.8456 34.0527 91.3452 35.6634L92.809 34.3005ZM133.704 72.134L133.336 73.0638L133.347 73.0683L133.359 73.0726L133.704 72.134ZM125.832 66.95L125.104 67.636L125.109 67.6414L125.114 67.6467L125.832 66.95ZM120.936 58.79L121.877 58.4512L121.877 58.4512L120.936 58.79ZM125.832 28.934L125.114 28.2372L125.109 28.2425L125.104 28.2479L125.832 28.934ZM133.704 23.846L134.055 24.7823L134.065 24.7783L133.704 23.846ZM157.224 25.382L156.658 26.2065L156.667 26.2128L156.676 26.2189L157.224 25.382ZM164.808 34.118L165.285 34.9964L166.116 34.5446L165.711 33.6899L164.808 34.118ZM153.864 40.07L152.957 40.4928L153.407 41.4565L154.341 40.9484L153.864 40.07ZM150.312 35.27L149.639 36.0099L149.647 36.0173L149.655 36.0246L150.312 35.27ZM136.584 36.23L135.853 35.5476L135.852 35.5485L136.584 36.23ZM136.584 59.75L135.84 60.4189L135.852 60.4319L135.864 60.4446L136.584 59.75ZM150.792 60.614L150.167 59.8331L150.159 59.8393L150.151 59.8457L150.792 60.614ZM154.824 55.622L155.32 54.7537L154.424 54.2421L153.941 55.1528L154.824 55.622ZM165.576 61.766L166.473 62.2069L166.887 61.3638L166.072 60.8977L165.576 61.766ZM157.704 70.598L158.244 71.4397L158.248 71.4371L157.704 70.598ZM144.264 72.862C140.458 72.862 137.057 72.3005 134.048 71.1953L133.359 73.0726C136.622 74.2714 140.261 74.862 144.264 74.862V72.862ZM134.072 71.2042C131.123 70.0372 128.621 68.3858 126.549 66.2532L125.114 67.6467C127.395 69.9941 130.14 71.7988 133.336 73.0638L134.072 71.2042ZM126.559 66.2639C124.551 64.1338 122.987 61.5357 121.877 58.4512L119.995 59.1287C121.188 62.4443 122.888 65.2861 125.104 67.636L126.559 66.2639ZM121.877 58.4512C120.77 55.3779 120.208 51.8794 120.208 47.942H118.208C118.208 52.0685 118.797 55.802 119.995 59.1287L121.877 58.4512ZM120.208 47.942C120.208 44.0045 120.77 40.506 121.877 37.4327L119.995 36.7552C118.797 40.0819 118.208 43.8154 118.208 47.942H120.208ZM121.877 37.4327C122.987 34.3483 124.551 31.7501 126.559 29.62L125.104 28.2479C122.888 30.5978 121.188 33.4397 119.995 36.7552L121.877 37.4327ZM126.549 29.6307C128.617 27.502 131.114 25.8851 134.055 24.7823L133.353 22.9096C130.149 24.1108 127.398 25.8859 125.114 28.2372L126.549 29.6307ZM134.065 24.7783C137.071 23.6129 140.434 23.022 144.168 23.022V21.022C140.221 21.022 136.609 21.647 133.342 22.9136L134.065 24.7783ZM144.168 23.022C149.479 23.022 153.612 24.1163 156.658 26.2065L157.789 24.5574C154.307 22.1676 149.736 21.022 144.168 21.022V23.022ZM156.676 26.2189C159.848 28.2925 162.254 31.0619 163.904 34.546L165.711 33.6899C163.906 29.878 161.256 26.8234 157.771 24.545L156.676 26.2189ZM164.33 33.2395L153.386 39.1915L154.341 40.9484L165.285 34.9964L164.33 33.2395ZM154.77 39.6471C153.82 37.6113 152.554 35.8949 150.968 34.5154L149.655 36.0246C151.013 37.205 152.115 38.6886 152.957 40.4928L154.77 39.6471ZM150.984 34.53C149.328 33.0247 147.002 32.35 144.168 32.35V34.35C146.709 34.35 148.479 34.9553 149.639 36.0099L150.984 34.53ZM144.168 32.35C140.698 32.35 137.878 33.3778 135.853 35.5476L137.315 36.9123C138.873 35.2422 141.109 34.35 144.168 34.35V32.35ZM135.852 35.5485C133.906 37.6381 132.992 40.4682 132.992 43.91H134.992C134.992 40.8237 135.805 38.5338 137.316 36.9114L135.852 35.5485ZM132.992 43.91V51.974H134.992V43.91H132.992ZM132.992 51.974C132.992 55.4175 133.907 58.2707 135.84 60.4189L137.327 59.081C135.804 57.3893 134.992 55.0584 134.992 51.974H132.992ZM135.864 60.4446C137.899 62.5517 140.785 63.534 144.36 63.534V61.534C141.15 61.534 138.853 60.6602 137.303 59.0554L135.864 60.4446ZM144.36 63.534C147.258 63.534 149.659 62.8598 151.432 61.3822L150.151 59.8457C148.853 60.9281 146.965 61.534 144.36 61.534V63.534ZM151.416 61.3948C153.136 60.0191 154.563 58.2437 155.707 56.0911L153.941 55.1528C152.908 57.0962 151.647 58.6488 150.167 59.8331L151.416 61.3948ZM154.327 56.4902L165.079 62.6342L166.072 60.8977L155.32 54.7537L154.327 56.4902ZM164.678 61.3251C162.967 64.8085 160.466 67.6158 157.16 69.7588L158.248 71.4371C161.853 69.1002 164.6 66.0194 166.473 62.2069L164.678 61.3251ZM157.164 69.7563C153.983 71.7965 149.711 72.862 144.264 72.862V74.862C149.953 74.862 154.64 73.7514 158.244 71.4397L157.164 69.7563ZM177.25 1.66996V0.66996H176.25V1.66996H177.25ZM191.458 1.66996H192.458V0.66996H191.458V1.66996ZM191.458 32.198H190.458V33.198H191.458V32.198ZM192.034 32.198V33.198H192.705L192.96 32.5766L192.034 32.198ZM197.122 25.094L197.736 25.8833L197.742 25.8788L197.122 25.094ZM201.25 22.886L201.566 23.8346L201.578 23.8309L201.589 23.8268L201.25 22.886ZM213.154 23.27L212.767 24.1922L212.78 24.1975L212.793 24.2025L213.154 23.27ZM221.506 32.678L220.557 32.9942L220.561 33.0059L220.566 33.0176L221.506 32.678ZM222.754 72.71V73.71H223.754V72.71H222.754ZM208.546 72.71H207.546V73.71H208.546V72.71ZM196.93 33.446L197.173 34.4161L197.193 34.4111L197.212 34.4053L196.93 33.446ZM194.146 34.79L194.715 35.6122L194.736 35.5979L194.756 35.5826L194.146 34.79ZM192.13 36.998L191.262 36.5018L191.248 36.5259L191.236 36.5507L192.13 36.998ZM191.458 72.71V73.71H192.458V72.71H191.458ZM177.25 72.71H176.25V73.71H177.25V72.71ZM177.25 2.66996H191.458V0.66996H177.25V2.66996ZM190.458 1.66996V32.198H192.458V1.66996H190.458ZM191.458 33.198H192.034V31.198H191.458V33.198ZM192.96 32.5766C193.51 31.2318 194.181 29.9825 194.971 28.8266L193.321 27.6973C192.448 28.9734 191.71 30.3481 191.109 31.8193L192.96 32.5766ZM194.971 28.8266C195.746 27.6952 196.667 26.7152 197.736 25.8833L196.508 24.3046C195.274 25.2647 194.211 26.3967 193.321 27.6973L194.971 28.8266ZM197.742 25.8788C198.863 24.9938 200.135 24.3117 201.566 23.8346L200.934 21.9373C199.293 22.4842 197.813 23.2741 196.502 24.3091L197.742 25.8788ZM201.589 23.8268C203.064 23.2959 204.739 23.022 206.626 23.022V21.022C204.546 21.022 202.637 21.324 200.911 21.9451L201.589 23.8268ZM206.626 23.022C208.875 23.022 210.918 23.4165 212.767 24.1922L213.541 22.3478C211.423 21.4595 209.114 21.022 206.626 21.022V23.022ZM212.793 24.2025C214.627 24.9124 216.189 26.003 217.491 27.4826L218.993 26.1613C217.479 24.4409 215.649 23.1635 213.515 22.3374L212.793 24.2025ZM217.491 27.4826C218.8 28.9691 219.826 30.7995 220.557 32.9942L222.455 32.3617C221.65 29.9485 220.501 27.8748 218.993 26.1613L217.491 27.4826ZM220.566 33.0176C221.35 35.1911 221.754 37.7283 221.754 40.646H223.754C223.754 37.5476 223.326 34.7729 222.447 32.3383L220.566 33.0176ZM221.754 40.646V72.71H223.754V40.646H221.754ZM222.754 71.71H208.546V73.71H222.754V71.71ZM209.546 72.71V42.566H207.546V72.71H209.546ZM209.546 42.566C209.546 39.2433 208.826 36.5646 207.213 34.7096C205.576 32.8279 203.171 31.966 200.194 31.966V33.966C202.785 33.966 204.557 34.704 205.704 36.0223C206.874 37.3673 207.546 39.4886 207.546 42.566H209.546ZM200.194 31.966C199.007 31.966 197.824 32.1408 196.648 32.4866L197.212 34.4053C198.213 34.1111 199.206 33.966 200.194 33.966V31.966ZM196.688 32.4758C195.531 32.7649 194.478 33.2731 193.536 33.9973L194.756 35.5826C195.478 35.0268 196.281 34.639 197.173 34.4161L196.688 32.4758ZM193.577 33.9678C192.62 34.6305 191.846 35.4788 191.262 36.5018L192.998 37.4941C193.438 36.7251 194.009 36.1014 194.715 35.6122L193.577 33.9678ZM191.236 36.5507C190.705 37.6122 190.458 38.8275 190.458 40.166H192.458C192.458 39.0725 192.659 38.1757 193.025 37.4452L191.236 36.5507ZM190.458 40.166V72.71H192.458V40.166H190.458ZM191.458 71.71H177.25V73.71H191.458V71.71ZM178.25 72.71V1.66996H176.25V72.71H178.25ZM264.573 17.51V16.51H263.573V17.51H264.573ZM264.573 72.71V73.71H265.573V72.71H264.573ZM250.173 72.71H249.173V73.71H250.173V72.71ZM250.173 17.51H251.173V16.51H250.173V17.51ZM230.877 17.51H229.877V18.51H230.877V17.51ZM230.877 5.70196V4.70196H229.877V5.70196H230.877ZM283.869 5.70196H284.869V4.70196H283.869V5.70196ZM283.869 17.51V18.51H284.869V17.51H283.869ZM263.573 17.51V72.71H265.573V17.51H263.573ZM264.573 71.71H250.173V73.71H264.573V71.71ZM251.173 72.71V17.51H249.173V72.71H251.173ZM250.173 16.51H230.877V18.51H250.173V16.51ZM231.877 17.51V5.70196H229.877V17.51H231.877ZM230.877 6.70196H283.869V4.70196H230.877V6.70196ZM282.869 5.70196V17.51H284.869V5.70196H282.869ZM283.869 16.51H264.573V18.51H283.869V16.51ZM293.239 61.67V60.67H292.239V61.67H293.239ZM304.663 61.67V62.67H305.663V61.67H304.663ZM304.663 34.214H305.663V33.214H304.663V34.214ZM293.239 34.214H292.239V35.214H293.239V34.214ZM293.239 23.174V22.174H292.239V23.174H293.239ZM318.871 23.174H319.871V22.174H318.871V23.174ZM318.871 37.19H317.871V38.19H318.871V37.19ZM319.543 37.19V38.19H320.324L320.513 37.4325L319.543 37.19ZM321.367 32.006L320.466 31.5721L320.463 31.5795L320.459 31.5869L321.367 32.006ZM324.439 27.494L323.715 26.8043L323.714 26.8052L324.439 27.494ZM329.047 24.326L329.441 25.2451L329.441 25.2451L329.047 24.326ZM340.087 23.174H341.087V22.174H340.087V23.174ZM340.087 36.23V37.23H341.087V36.23H340.087ZM321.559 39.398L322.312 40.0565L322.317 40.0507L322.322 40.0449L321.559 39.398ZM318.871 61.67H317.871V62.67H318.871V61.67ZM335.191 61.67H336.191V60.67H335.191V61.67ZM335.191 72.71V73.71H336.191V72.71H335.191ZM293.239 72.71H292.239V73.71H293.239V72.71ZM293.239 62.67H304.663V60.67H293.239V62.67ZM305.663 61.67V34.214H303.663V61.67H305.663ZM304.663 33.214H293.239V35.214H304.663V33.214ZM294.239 34.214V23.174H292.239V34.214H294.239ZM293.239 24.174H318.871V22.174H293.239V24.174ZM317.871 23.174V37.19H319.871V23.174H317.871ZM318.871 38.19H319.543V36.19H318.871V38.19ZM320.513 37.4325C320.946 35.7007 321.534 34.0318 322.275 32.425L320.459 31.5869C319.665 33.3081 319.036 35.0952 318.573 36.9474L320.513 37.4325ZM322.268 32.4398C323.059 30.7973 324.026 29.3812 325.164 28.1827L323.714 26.8052C322.421 28.1667 321.339 29.7586 320.466 31.5721L322.268 32.4398ZM325.163 28.1836C326.345 26.9426 327.767 25.9625 329.441 25.2451L328.653 23.4068C326.743 24.2254 325.093 25.3573 323.715 26.8043L325.163 28.1836ZM329.441 25.2451C331.082 24.5419 333.054 24.174 335.383 24.174V22.174C332.848 22.174 330.596 22.574 328.653 23.4068L329.441 25.2451ZM335.383 24.174H340.087V22.174H335.383V24.174ZM339.087 23.174V36.23H341.087V23.174H339.087ZM340.087 35.23H329.527V37.23H340.087V35.23ZM329.527 35.23C325.799 35.23 322.828 36.357 320.797 38.751L322.322 40.0449C323.874 38.215 326.215 37.23 329.527 37.23V35.23ZM320.807 38.7395C318.838 40.9894 317.871 43.7592 317.871 46.982H319.871C319.871 44.1887 320.696 41.9025 322.312 40.0565L320.807 38.7395ZM317.871 46.982V61.67H319.871V46.982H317.871ZM318.871 62.67H335.191V60.67H318.871V62.67ZM334.191 61.67V72.71H336.191V61.67H334.191ZM335.191 71.71H293.239V73.71H335.191V71.71ZM294.239 72.71V61.67H292.239V72.71H294.239ZM368.85 14.918L368.108 15.5889L368.125 15.6074L368.143 15.6251L368.85 14.918ZM368.85 2.53396L368.143 1.82685L368.133 1.83592L368.125 1.84521L368.85 2.53396ZM382.194 2.53396L381.469 3.22271L381.477 3.232L381.487 3.24107L382.194 2.53396ZM382.194 14.918L381.469 14.2283L381.469 14.2292L382.194 14.918ZM352.722 61.67V60.67H351.722V61.67H352.722ZM368.466 61.67V62.67H369.466V61.67H368.466ZM368.466 34.214H369.466V33.214H368.466V34.214ZM352.722 34.214H351.722V35.214H352.722V34.214ZM352.722 23.174V22.174H351.722V23.174H352.722ZM382.674 23.174H383.674V22.174H382.674V23.174ZM382.674 61.67H381.674V62.67H382.674V61.67ZM397.266 61.67H398.266V60.67H397.266V61.67ZM397.266 72.71V73.71H398.266V72.71H397.266ZM352.722 72.71H351.722V73.71H352.722V72.71ZM375.57 15.838C372.447 15.838 370.549 15.2029 369.557 14.2108L368.143 15.6251C369.71 17.193 372.292 17.838 375.57 17.838V15.838ZM369.591 14.247C368.546 13.0917 368.026 11.7326 368.026 10.118H366.026C366.026 12.2153 366.721 14.0562 368.108 15.5889L369.591 14.247ZM368.026 10.118V7.33396H366.026V10.118H368.026ZM368.026 7.33396C368.026 5.64577 368.551 4.29981 369.575 3.22271L368.125 1.84521C366.716 3.32811 366.026 5.18214 366.026 7.33396H368.026ZM369.557 3.24107C370.549 2.24899 372.447 1.61396 375.57 1.61396V-0.386044C372.292 -0.386044 369.71 0.25893 368.143 1.82685L369.557 3.24107ZM375.57 1.61396C378.7 1.61396 380.547 2.25228 381.469 3.22271L382.919 1.84521C381.409 0.255631 378.839 -0.386044 375.57 -0.386044V1.61396ZM381.487 3.24107C382.567 4.32127 383.114 5.66132 383.114 7.33396H385.114C385.114 5.1666 384.381 3.30665 382.901 1.82685L381.487 3.24107ZM383.114 7.33396V10.118H385.114V7.33396H383.114ZM383.114 10.118C383.114 11.7172 382.572 13.0702 381.469 14.2283L382.918 15.6076C384.375 14.0777 385.114 12.2307 385.114 10.118H383.114ZM381.469 14.2292C380.547 15.1996 378.7 15.838 375.57 15.838V17.838C378.839 17.838 381.409 17.1963 382.919 15.6067L381.469 14.2292ZM352.722 62.67H368.466V60.67H352.722V62.67ZM369.466 61.67V34.214H367.466V61.67H369.466ZM368.466 33.214H352.722V35.214H368.466V33.214ZM353.722 34.214V23.174H351.722V34.214H353.722ZM352.722 24.174H382.674V22.174H352.722V24.174ZM381.674 23.174V61.67H383.674V23.174H381.674ZM382.674 62.67H397.266V60.67H382.674V62.67ZM396.266 61.67V72.71H398.266V61.67H396.266ZM397.266 71.71H352.722V73.71H397.266V71.71ZM353.722 72.71V61.67H351.722V72.71H353.722ZM403.468 72.71L402.663 72.1169L401.489 73.71H403.468V72.71ZM421.996 47.558L422.801 48.1511L423.23 47.5693L422.812 46.9798L421.996 47.558ZM404.716 23.174V22.174H402.782L403.9 23.7522L404.716 23.174ZM420.94 23.174L421.774 22.6216L421.477 22.174H420.94V23.174ZM426.22 31.142L427.067 30.6108L427.061 30.6001L427.054 30.5896L426.22 31.142ZM430.252 37.574L429.405 38.1051L429.699 38.574H430.252V37.574ZM431.02 37.574V38.574H431.567L431.862 38.1141L431.02 37.574ZM435.148 31.142L434.319 30.5827L434.313 30.5922L434.307 30.6018L435.148 31.142ZM440.524 23.174V22.174H439.993L439.695 22.6147L440.524 23.174ZM455.404 23.174L456.211 23.7645L457.375 22.174H455.404V23.174ZM438.124 46.79L437.317 46.1994L436.89 46.7831L437.311 47.3715L438.124 46.79ZM456.652 72.71V73.71H458.596L457.466 72.1284L456.652 72.71ZM440.332 72.71L439.501 73.2666L439.798 73.71H440.332V72.71ZM434.092 63.398L433.254 63.9443L433.261 63.9546L434.092 63.398ZM429.772 56.774L430.61 56.2277L430.314 55.774H429.772V56.774ZM429.004 56.774V55.774H428.456L428.161 56.2363L429.004 56.774ZM424.78 63.398L425.607 63.9605L425.615 63.9482L425.623 63.9356L424.78 63.398ZM418.444 72.71V73.71H418.973L419.271 73.2725L418.444 72.71ZM404.273 73.3031L422.801 48.1511L421.191 46.9649L402.663 72.1169L404.273 73.3031ZM422.812 46.9798L405.532 22.5958L403.9 23.7522L421.18 48.1362L422.812 46.9798ZM404.716 24.174H420.94V22.174H404.716V24.174ZM420.107 23.7263L425.387 31.6943L427.054 30.5896L421.774 22.6216L420.107 23.7263ZM425.373 31.6731L429.405 38.1051L431.099 37.0428L427.067 30.6108L425.373 31.6731ZM430.252 38.574H431.02V36.574H430.252V38.574ZM431.862 38.1141L435.99 31.6821L434.307 30.6018L430.179 37.0338L431.862 38.1141ZM435.977 31.7013L441.353 23.7333L439.695 22.6147L434.319 30.5827L435.977 31.7013ZM440.524 24.174H455.404V22.174H440.524V24.174ZM454.597 22.5834L437.317 46.1994L438.931 47.3805L456.211 23.7645L454.597 22.5834ZM437.311 47.3715L455.839 73.2915L457.466 72.1284L438.938 46.2084L437.311 47.3715ZM456.652 71.71H440.332V73.71H456.652V71.71ZM441.163 72.1533L434.923 62.8413L433.261 63.9546L439.501 73.2666L441.163 72.1533ZM434.93 62.8517L430.61 56.2277L428.935 57.3202L433.255 63.9442L434.93 62.8517ZM429.772 55.774H429.004V57.774H429.772V55.774ZM428.161 56.2363L423.937 62.8603L425.623 63.9356L429.847 57.3116L428.161 56.2363ZM423.953 62.8354L417.617 72.1474L419.271 73.2725L425.607 63.9605L423.953 62.8354ZM418.444 71.71H403.468V73.71H418.444V71.71Z" fill="black"/>
</svg>
